<svg height="48pt" viewBox="0 0 48 48" width="48pt" xmlns="http://www.w3.org/2000/svg" xmlns:xlink="http://www.w3.org/1999/xlink"><linearGradient id="a" gradientTransform="matrix(47.058 0 0 46.985 .495 .559)" gradientUnits="userSpaceOnUse" x1="-.000038" x2=".999962" y1=".5" y2=".5"><stop offset="0" stop-color="#00c6ff"/><stop offset=".98695652174" stop-color="#0072ff"/></linearGradient><path d="m23.5 9c-.103.001-.206.012-.307.033-7.907.421-14.193 6.954-14.193 14.967 0 8.284 6.716 15 15 15 8.01 0 14.542-6.282 14.967-14.186.022-.103.033-.208.033-.314 0-.828-.672-1.5-1.5-1.5-.816.001-1.481.653-1.498 1.469-.001.004-.012.005-.012.01-.251 6.405-5.523 11.521-11.99 11.521-6.627 0-12-5.373-12-12 0-6.463 5.11-11.733 11.51-11.99.003 0 .006-.009.01-.01.82-.011 1.48-.679 1.48-1.5 0-.828-.672-1.5-1.5-1.5zm0 6c-.135 0-.27.018-.4.055-.001 0-.002 0-.002 0-4.546.454-8.098 4.28-8.098 8.945 0 4.971 4.029 9 9 9 4.667 0 8.494-3.555 8.945-8.104.036-.129.055-.262.055-.396 0-.828-.672-1.5-1.5-1.5-.799.001-1.457.628-1.496 1.426-.006.011-.021.02-.022.033-.234 3.099-2.823 5.541-5.982 5.541-3.314 0-6-2.686-6-6 0-3.179 2.472-5.781 5.6-5.986.009-.001.015-.015.023-.02.778-.064 1.377-.714 1.377-1.494 0-.828-.672-1.5-1.5-1.5zm.5 6c-1.657 0-3 1.343-3 3s1.343 3 3 3 3-1.343 3-3-1.343-3-3-3zm-1.583 22.272c1.174.099 2.049 1.135 1.953 2.312-.097 1.176-1.133 2.051-2.312 1.952-5.91-.492-11.426-3.205-15.429-7.594-3.993-4.389-6.187-10.131-6.133-16.067.056-6.235 2.592-12.201 7.038-16.578 4.456-4.367 10.468-6.793 16.703-6.737s12.201 2.592 16.578 7.038c4.366 4.456 6.793 10.468 6.737 16.703-.011 1.18-.978 2.13-2.158 2.119-1.181-.01-2.131-.977-2.12-2.158.046-5.101-1.941-10.018-5.513-13.665-3.582-3.637-8.462-5.713-13.563-5.759s-10.018 1.941-13.665 5.513c-3.637 3.582-5.713 8.462-5.759 13.563-.044 4.855 1.742 9.556 5.015 13.147 3.272 3.591 7.787 5.803 12.628 6.211zm18.573-10.078c.558-1.04 1.856-1.431 2.896-.873 1.039.559 1.43 1.856.872 2.896-2.382 4.428-6.126 7.988-10.67 10.139-1.067.51-2.345.057-2.851-1.01-.507-1.067-.052-2.347 1.015-2.857 3.727-1.763 6.78-4.666 8.738-8.295z" fill="url(#a)" fill-rule="evenodd"/></svg>