<svg height="1024" preserveAspectRatio="none" viewBox="0 0 1024 1024" width="1024" xmlns="http://www.w3.org/2000/svg" xmlns:xlink="http://www.w3.org/1999/xlink"><linearGradient id="a" gradientUnits="userSpaceOnUse" spreadMethod="pad" x1="79.2375" x2="75.9625" y1="97.65" y2="-74.35"><stop offset="0" stop-color="#1d99f3"/><stop offset="1" stop-color="#2972a7"/></linearGradient><linearGradient id="b" gradientUnits="userSpaceOnUse" spreadMethod="pad" x1="-76.7875" x2="-73.5125" y1="87.7875" y2="-100.9875"><stop offset="0" stop-color="#9559b6"/><stop offset="1" stop-color="#8e44ad"/></linearGradient><path d="m962.85 367.85q-2.47128906-7.946875-5.25-15.8-9.75-27.55-23.15-53.65-5.8-11.35-12.3-22.4-30.65-52-76.35-97.75-109-109-253.65-132.05-24.5-3.9-50.05-5.35-14.9-.85-30.1-.85-14.1 0-27.9.75-177.55 9.2-305.85 137.5-30.16621094 30.16621094-53.75 63.05-84.5 117.85820313-84.5 270.7 0 195.55 138.25 333.8 84.79003906 84.75703125 191.1 117.55 54.53808594 16.81308594 114.75 19.95.2 0 .4 0 12.15.6 24.5.7 1.5 0 3 0 15.25 0 30.1-.8 3.5-.2 6.95-.45 30.05-2.15 58.7-7.7 11.8-2.3 23.4-5.15 120.6-30.05 214.65-124.1 33.53222656-33.55527344 58.9-70.5 19.81933594-28.74550781 34.65-59.55 7.54492188-15.61738281 13.8-31.75 27.75-71.6 30.55-153.5.3-9.2.3-18.5 0-1 0-2 0-.5 0-1-.35-61.3-14.3-117-1.75-6.85-3.65-13.6-1.52421875-5.28554687-3.2-10.55m-196.65 202.95q0-1 .05-1.95v4.2q-.05-1.1-.05-2.25m-51.2 96.55q0 1.2-.05 2.35v-4.85q.05 1.25.05 2.5m-519-287q0-3.7.35-7.3v14.6q-.35-3.6-.35-7.3m422 358.15v-3.45q.05.85.05 1.7 0 .85-.05 1.75z" fill="#dbe0e3"/><path d="m618 735.05v3.45q.05-.9.05-1.75 0-.85-.05-1.7m-421.65-362q-.35 3.6-.35 7.3 0 3.7.35 7.3zm518.6 296.65q.05-1.15.05-2.35 0-1.25-.05-2.5zm51.3-100.85q-.05.95-.05 1.95 0 1.15.05 2.25z" fill="#72e79f"/><path d="m953.15 684q7.2-18.5 12.7-37.7l-134.3-134.3-187.15-77.65-132.35-132.35-316.8 211.2 452.3 452.3q110.65-32.1 198.25-119.7 33.55-33.55 58.95-70.45 19.75-28.8 34.65-59.6 7.5-15.6 13.75-31.75m-186.9-110.95q-.05-1.1-.05-2.25 0-1 .05-1.95zm-51.3 91.8q.05 1.25.05 2.5 0 1.2-.05 2.35zm-96.95 70.2q.05.85.05 1.7 0 .85-.05 1.75z" fill-opacity=".047059"/><path d="m618.05 736.75q0-.85-.05-1.7v3.45q.05-.9.05-1.75m96.95-69.4q0-1.25-.05-2.5v4.85q.05-1.15.05-2.35m51.2-96.55q0 1.15.05 2.25v-4.2q-.05.95-.05 1.95m-570.2-190.45q0 3.7.35 7.3v-14.6q-.35 3.6-.35 7.3z" fill="#72e79f"/><g transform="matrix(2.09901428 0 0 2.09901428 512 512)"><path d="m37.05-76.65-9.15 43.65 53.3 33-68.5 42.65-11.7 58.35 151.25-101z" fill="url(#a)"/><path d="m.5-101h-.5l-152.25 101 116.7 78.15 8.65-44.15-54.3-34 70.05-43.65z" fill="url(#b)"/></g></svg>