<?xml version="1.0" encoding="UTF-8"?> <svg xmlns="http://www.w3.org/2000/svg" xmlns:xlink="http://www.w3.org/1999/xlink" version="1.1" id="Layer_1" x="0px" y="0px" viewBox="0 0 340 160" style="enable-background:new 0 0 340 160;" xml:space="preserve"> <style type="text/css"> .st0{fill:#2F3452;} </style> <g> <path class="st0" d="M166.5,104.4h-31.4l31.4-44.9V104.4z M56.9,74H39.4v-38h16c18.2,0,26.2,5.8,26.2,18.8 C81.6,68.3,73.3,74,56.9,74 M119.4,68c0.9-4.5,1.3-9.1,1.3-13.9c0-21.6-10.8-40-28.1-48C84.2,2.2,71.4-0.2,54.3,0h-54v160h39.1 v-50.2h19c16,0,28.4-3.2,37.8-8.6h0L55.4,160h41.1l16.1-23.1l53.9,0V160l39.2,0V0l-39.1,0L119.4,68z"></path> <path class="st0" d="M277.5,78.3c-2.7,1-4.8,1.7-8.4,1.9c-6.7,0.5-19.5,0.2-19.5,0.2V35.9l15.7,0c4.5,0,9,0.6,13.1,2.4 c4.1,1.8,7.5,4.5,9.8,8.4c1.6,2.7,2.3,5.6,2.6,8.7c0.3,3.5-0.1,6.9-1.1,10.2C287.8,71.9,283.5,76,277.5,78.3 M290.2,105.5l0.9-0.2 c8.9-1.7,16.7-5.5,23.3-11.7c5.6-5.3,9.6-11.6,12.2-18.9c1.6-4.4,2.7-8.9,3.1-13.6c0.9-9.6-0.3-19.2-3.9-28.2 c-3.8-9.6-9.9-17.5-18.5-23.4c-4.6-3.1-9.5-5.1-14.8-6.5c-4.8-1.2-9.2-2.1-14.8-2.7C273.6,0,269.1,0,269.1,0l-58.6,0v160h39.1 v-52.3L287,160l44.1,0L290.2,105.5z"></path> <g> <path class="st0" d="M331.1,17.4c-1.2,0-2.3-0.2-3.4-0.7c-1.1-0.4-2-1.1-2.8-1.9c-0.8-0.8-1.4-1.7-1.9-2.8s-0.7-2.2-0.7-3.4 c0-1.2,0.2-2.3,0.7-3.4c0.4-1,1.1-2,1.9-2.8s1.7-1.4,2.8-1.9c1.1-0.4,2.2-0.7,3.4-0.7c1.2,0,2.3,0.2,3.4,0.7s2,1.1,2.8,1.9 c0.8,0.8,1.4,1.7,1.9,2.8c0.4,1,0.7,2.2,0.7,3.4c0,1.2-0.2,2.3-0.7,3.4s-1.1,2-1.9,2.8c-0.8,0.8-1.7,1.4-2.8,1.9 C333.4,17.2,332.3,17.4,331.1,17.4z M331.1,15.8c1.3,0,2.5-0.3,3.6-1c1.1-0.6,1.9-1.5,2.6-2.6c0.6-1.1,1-2.3,1-3.6 c0-1.3-0.3-2.5-1-3.6c-0.6-1.1-1.5-1.9-2.6-2.6c-1.1-0.6-2.3-1-3.6-1c-1.3,0-2.5,0.3-3.6,1s-1.9,1.5-2.6,2.6s-1,2.3-1,3.6 c0,1.3,0.3,2.5,1,3.6c0.6,1.1,1.5,1.9,2.6,2.6S329.7,15.8,331.1,15.8z M328,12.9V4.3h3.8c0.7,0,1.4,0.3,2,0.8 c0.6,0.5,0.8,1.2,0.8,1.9c0,0.5-0.1,1-0.4,1.4c-0.3,0.5-0.7,0.8-1.2,1.1l1.6,3.3h-1.5l-1.5-3.1h-2.2v3.1H328z M329.4,8.6h2.4 c0.4,0,0.7-0.1,1-0.4c0.3-0.3,0.4-0.6,0.4-1.1c0-0.4-0.2-0.8-0.5-1.1c-0.3-0.3-0.7-0.4-1-0.4h-2.4V8.6z"></path> </g> </g> </svg> 